<svg width="196" height="24" viewBox="0 0 196 24" fill="none" xmlns="http://www.w3.org/2000/svg">
<path d="M44.5 21.344H38V3.144H44.5C46.4933 3.144 48.218 3.51667 49.674 4.262C51.13 4.99 52.2567 6.03867 53.054 7.408C53.8513 8.76 54.25 10.372 54.25 12.244C54.25 14.116 53.8513 15.7367 53.054 17.106C52.2567 18.458 51.13 19.5067 49.674 20.252C48.218 20.98 46.4933 21.344 44.5 21.344ZM44.344 7.07H42.55V17.418H44.344C45.28 17.418 46.1553 17.262 46.97 16.95C47.7847 16.6207 48.4433 16.0833 48.946 15.338C49.4487 14.5753 49.7 13.544 49.7 12.244C49.7 10.944 49.4487 9.92133 48.946 9.176C48.4433 8.41333 47.7847 7.876 46.97 7.564C46.1553 7.23467 45.28 7.07 44.344 7.07Z" fill="#333333"/>
<path d="M72.9992 3.144H78.0693L71.6992 13.934V21.344H67.2013V13.96L60.8312 3.144H65.9013L69.4373 9.982L72.9992 3.144Z" fill="#333333"/>
<path d="M99.0033 3.144H103.241V22.254L90.6833 11.126V21.344H86.4453V2.234L99.0033 13.362V3.144Z" fill="#333333"/>
<path d="M125.783 21.344L124.066 17.834H118.295L116.604 21.344H111.613L121.206 2L130.774 21.344H125.783ZM121.206 9.852L119.178 14.48H123.209L121.206 9.852Z" fill="#333333"/>
<path d="M141.184 14.948C141.738 15.936 142.388 16.7247 143.134 17.314C143.896 17.886 144.737 18.172 145.656 18.172C146.314 18.172 146.843 18.016 147.242 17.704C147.658 17.3747 147.866 16.9327 147.866 16.378C147.866 15.9273 147.744 15.5547 147.502 15.26C147.259 14.9653 146.869 14.688 146.332 14.428C145.812 14.168 145.11 13.8733 144.226 13.544C143.775 13.3707 143.272 13.1453 142.718 12.868C142.163 12.5907 141.626 12.2353 141.106 11.802C140.603 11.3687 140.187 10.84 139.858 10.216C139.528 9.57467 139.364 8.812 139.364 7.928C139.364 6.836 139.641 5.90867 140.196 5.146C140.768 4.366 141.53 3.768 142.484 3.352C143.454 2.936 144.529 2.728 145.708 2.728C146.938 2.728 147.996 2.92733 148.88 3.326C149.764 3.72467 150.5 4.22733 151.09 4.834C151.679 5.44067 152.13 6.056 152.442 6.68L149.088 8.552C148.689 7.89333 148.212 7.37333 147.658 6.992C147.103 6.59333 146.47 6.394 145.76 6.394C145.136 6.394 144.659 6.53267 144.33 6.81C144.018 7.07 143.862 7.39933 143.862 7.798C143.862 8.422 144.208 8.93333 144.902 9.332C145.612 9.71333 146.6 10.1293 147.866 10.58C148.715 10.8747 149.486 11.2733 150.18 11.776C150.89 12.2613 151.454 12.868 151.87 13.596C152.303 14.3067 152.52 15.1647 152.52 16.17C152.52 17.4007 152.199 18.4493 151.558 19.316C150.916 20.1653 150.076 20.8153 149.036 21.266C148.013 21.6993 146.93 21.916 145.786 21.916C144.607 21.916 143.506 21.708 142.484 21.292C141.478 20.8587 140.594 20.2867 139.832 19.576C139.086 18.848 138.514 18.042 138.116 17.158L141.184 14.948Z" fill="#333333"/>
<path d="M160.112 7.096V3.144H174.516V7.096H169.524V21.344H165.104V7.096H160.112Z" fill="#333333"/>
<path d="M183.006 3.144H187.478V21.344H183.006V3.144Z" fill="#333333"/>
<circle r="12" transform="matrix(0 -1 -1 0 12 12)" fill="url(#paint0_angular)"/>
<defs>
<radialGradient id="paint0_angular" cx="0" cy="0" r="1" gradientUnits="userSpaceOnUse" gradientTransform="translate(12 12) scale(12)">
<stop stop-color="#E7816B" stop-opacity="0.01"/>
<stop offset="0.999287" stop-color="#E7816B"/>
</radialGradient>
</defs>
</svg>
