<svg width="202" height="27" viewBox="0 0 202 27" fill="none" xmlns="http://www.w3.org/2000/svg">
<path d="M42.7 21H48.136C49.544 21 50.852 20.752 52.06 20.256C53.276 19.752 54.336 19.052 55.24 18.156C56.152 17.26 56.86 16.212 57.364 15.012C57.868 13.812 58.12 12.516 58.12 11.124C58.12 9.732 57.864 8.436 57.352 7.236C56.848 6.028 56.14 4.972 55.228 4.068C54.324 3.164 53.268 2.46 52.06 1.956C50.852 1.452 49.544 1.2 48.136 1.2H42.7V21ZM46.588 17.52V4.68H47.704C48.904 4.68 49.972 4.96 50.908 5.52C51.852 6.08 52.592 6.844 53.128 7.812C53.672 8.78 53.944 9.88 53.944 11.112C53.944 12.336 53.672 13.432 53.128 14.4C52.592 15.368 51.852 16.132 50.908 16.692C49.972 17.244 48.904 17.52 47.704 17.52H46.588ZM69.3317 21H73.2197V12.18L80.4077 1.2H75.7277L71.2757 8.22L66.8237 1.2H62.1437L69.3317 12.18V21ZM88.0672 21H91.9552V7.68L100.487 21H104.375V1.2H100.487V14.52L91.9552 1.2H88.0672V21ZM112.298 21H116.486L118.166 16.488H125.942L127.622 21H131.81L123.866 1.2H120.254L112.298 21ZM119.498 13.08L122.054 6.444L124.622 13.08H119.498ZM144.43 21.384C145.87 21.384 147.13 21.148 148.21 20.676C149.29 20.196 150.13 19.508 150.73 18.612C151.338 17.708 151.642 16.62 151.642 15.348C151.642 14.196 151.39 13.252 150.886 12.516C150.39 11.772 149.682 11.136 148.762 10.608C147.85 10.072 146.774 9.548 145.534 9.036C144.958 8.796 144.45 8.576 144.01 8.376C143.57 8.176 143.226 7.94 142.978 7.668C142.738 7.388 142.618 7.024 142.618 6.576C142.618 5.968 142.85 5.448 143.314 5.016C143.786 4.584 144.446 4.368 145.294 4.368C146.054 4.368 146.79 4.524 147.502 4.836C148.222 5.148 148.838 5.52 149.35 5.952L150.97 2.904C150.538 2.536 150.01 2.196 149.386 1.884C148.762 1.572 148.09 1.32 147.37 1.128C146.65 0.935999 145.93 0.839999 145.21 0.839999C143.938 0.839999 142.822 1.116 141.862 1.668C140.902 2.212 140.154 2.928 139.618 3.816C139.09 4.704 138.826 5.652 138.826 6.66C138.826 7.516 139.014 8.264 139.39 8.904C139.766 9.536 140.262 10.076 140.878 10.524C141.494 10.972 142.158 11.356 142.87 11.676C143.838 12.092 144.658 12.468 145.33 12.804C146.01 13.14 146.526 13.508 146.878 13.908C147.23 14.3 147.406 14.808 147.406 15.432C147.406 16.216 147.134 16.804 146.59 17.196C146.054 17.588 145.37 17.784 144.538 17.784C143.746 17.784 143.01 17.64 142.33 17.352C141.65 17.064 141.042 16.724 140.506 16.332C139.978 15.94 139.534 15.588 139.174 15.276L137.182 18.492C137.518 18.82 138.018 19.212 138.682 19.668C139.354 20.124 140.17 20.524 141.13 20.868C142.098 21.212 143.198 21.384 144.43 21.384ZM162.265 21H166.141V4.632H171.169V1.2H157.249V4.632H162.265V21ZM179.317 21H183.205V1.2H179.317V21Z" fill="white"/>
<circle r="12" transform="matrix(0 -1 -1 0 12 12)" fill="url(#paint0_angular)"/>
<defs>
<radialGradient id="paint0_angular" cx="0" cy="0" r="1" gradientUnits="userSpaceOnUse" gradientTransform="translate(12 12) scale(12)">
<stop stop-color="#E7816B" stop-opacity="0.01"/>
<stop offset="0.999287" stop-color="#E7816B"/>
</radialGradient>
</defs>
</svg>
